# xmcd CD database file
#
# Track frame offsets:
#	182
#	19885
#	38877
#	58627
#	80115
#	105327
#	131827
#	157200
#	193585
#	218217
#	244517
#	275965
#	305580
#	320407
#
# Disc length: 4434 seconds
#
# Revision: 6
# Processed by: cddbd v1.5.2PL0 Copyright (c) Steve Scherf et al.
# Submitted via: CDex 1.70beta2
#
DISCID=d011500e
DTITLE=Barry White - Love Forever [CD 1)
DYEAR=1993
DGENRE=Blues
TTITLE0=It ain't love babe
TTITLE1=Hung up in your love
TTITLE2=You're the one I need
TTITLE3=Any fool could see (You Were Meant For Me)
TTITLE4=Love ain't easy
TTITLE5=Love song
TTITLE6=I'm on fire
TTITLE7=I believe in love
TTITLE8=America
TTITLE9=Don't forget ... remember
TTITLE10=All in the run of a day
TTITLE11=Don't let them blow your mind
TTITLE12=Our theme (part 1)
TTITLE13=Our theme (part 2)
EXTD=YEAR: 1993
EXTT0=
EXTT1=
EXTT2=
EXTT3=
EXTT4=
EXTT5=
EXTT6=
EXTT7=
EXTT8=
EXTT9=
EXTT10=
EXTT11=
EXTT12=
EXTT13=
PLAYORDER=
